<svg width="40" height="28" viewBox="0 0 40 28" fill="none" xmlns="http://www.w3.org/2000/svg">
<path d="M4.8 28H3.28485L2.3 24H0V13.3C0 12.4367 0.283333 11.7042 0.85 11.1026C1.41667 10.5009 2.13333 10.2 3 10.2H4.3V3C4.3 2.175 4.59375 1.46875 5.18125 0.88125C5.76875 0.29375 6.475 0 7.3 0H32.65C33.475 0 34.1813 0.29375 34.7688 0.88125C35.3563 1.46875 35.65 2.175 35.65 3V10.2H37C37.825 10.2 38.5313 10.4938 39.1188 11.0813C39.7063 11.6688 40 12.375 40 13.2V24H37.7L36.7108 28H35.1892L34.2 24H5.85L4.8 28ZM21.5 10.2H32.65V3H21.5V10.2ZM7.3 10.2H18.5V3H7.3V10.2ZM3 21H37V13.2H3V21Z" fill="#FEDAB6"/>
</svg>
