<svg width="44" height="35" viewBox="0 0 44 35" fill="none" xmlns="http://www.w3.org/2000/svg">
<path d="M5.25 12.6672C4.8675 12.6672 4.54687 12.5145 4.2881 12.2093C4.02937 11.9041 3.9 11.548 3.9 11.141C3.9 10.734 4.02937 10.3779 4.2881 10.0727C4.54687 9.76744 4.8675 9.61483 5.25 9.61483H12.7C13.6667 9.61483 14.4167 9.92006 14.95 10.5305C15.4833 11.141 15.8333 11.8532 16 12.6672H5.25ZM9.4 35C6.76667 35 4.54167 34.0576 2.725 32.1728C0.908333 30.288 0 28.0085 0 25.3343C0 22.6601 0.925 20.3806 2.775 18.4958C4.625 16.611 6.86667 15.6686 9.5 15.6686C10.5667 15.6686 11.632 15.8551 12.696 16.2282C13.7599 16.6013 14.7279 17.1609 15.6 17.907H19.05C20.45 17.907 21.625 17.4039 22.575 16.3977C23.525 15.3914 24 14.1819 24 12.7689V7.45999L21.55 5.03634L18.5 8.13953L17.55 7.22384L24.65 0L25.55 0.915698L22.45 4.06977L24.9 6.5625H38.5C39.3667 6.5625 40.0833 6.85077 40.65 7.42733C41.2167 8.00388 41.5 8.73304 41.5 9.61483V22.7907C42.2667 23.469 42.875 24.2701 43.325 25.1941C43.775 26.118 44 27.0974 44 28.1323C44 30.0291 43.3408 31.6479 42.0224 32.9887C40.7041 34.3296 39.1125 35 37.2475 35C35.3825 35 33.7917 34.3302 32.475 32.9906C31.1583 31.6509 30.5 30.0824 30.5 28.2849C30.5 28.0814 30.5083 27.8355 30.525 27.5472C30.5417 27.259 30.5667 27.03 30.6 26.8605H18.9C18.5333 29.2006 17.4667 31.1422 15.7 32.6853C13.9333 34.2284 11.8333 35 9.4 35ZM9.4941 31.9477C11.298 31.9477 12.8333 31.3053 14.1 30.0205C15.3667 28.7357 16 27.1757 16 25.3403C16 23.5049 15.3686 21.9428 14.1059 20.6541C12.8431 19.3653 11.3098 18.7209 9.5059 18.7209C7.70197 18.7209 6.16667 19.3633 4.9 20.6481C3.63333 21.9329 3 23.4929 3 25.3283C3 27.1637 3.63137 28.7258 4.8941 30.0145C6.15687 31.3033 7.6902 31.9477 9.4941 31.9477ZM37.2412 31.9477C38.2804 31.9477 39.1667 31.5776 39.9 30.8374C40.6333 30.0973 41 29.1986 41 28.1413C41 27.0839 40.6363 26.1822 39.9089 25.436C39.1814 24.6899 38.298 24.3169 37.2588 24.3169C36.2196 24.3169 35.3333 24.6869 34.6 25.4271C33.8667 26.1672 33.5 27.0659 33.5 28.1233C33.5 29.1806 33.8637 30.0824 34.5912 30.8285C35.3186 31.5746 36.202 31.9477 37.2412 31.9477ZM9.5059 28.8953C8.5353 28.8953 7.70833 28.5497 7.025 27.8585C6.34167 27.1672 6 26.3278 6 25.3403C6 24.3528 6.3397 23.5114 7.0191 22.8161C7.69853 22.1209 8.52353 21.7733 9.4941 21.7733C10.4647 21.7733 11.2917 22.1189 11.975 22.8101C12.6583 23.5014 13 24.3408 13 25.3283C13 26.3158 12.6603 27.1572 11.9809 27.8525C11.3015 28.5477 10.4765 28.8953 9.5059 28.8953ZM18.9 23.7573H32.05C32.65 23.0111 33.425 22.4092 34.375 21.9513C35.325 21.4935 36.326 21.2645 37.378 21.2645H38.5V9.61483H27V12.7689C27 14.9734 26.2167 16.8895 24.65 18.5174C23.0833 20.1453 21.2167 20.9593 19.05 20.9593H18C18.1667 21.2984 18.3343 21.7142 18.5028 22.2065C18.6713 22.6988 18.8037 23.2157 18.9 23.7573Z" fill="#FEDAB6"/>
</svg>
